<svg version="1.1" id="Layer_1" xmlns="http://www.w3.org/2000/svg" xmlns:xlink="http://www.w3.org/1999/xlink" x="0px" y="0px"
	 width="100%" viewBox="0 0 512 512" enable-background="new 0 0 512 512" xml:space="preserve">
<path fill="#000000" opacity="1.000000" stroke="none" 
	d="
M1.000000,181.468658 
	C3.615942,178.782593 3.469194,175.367813 4.482036,172.514084 
	C12.301055,150.483627 27.484043,136.333908 50.356194,132.087051 
	C71.470406,128.166595 90.289474,134.612213 106.250938,149.030914 
	C119.766891,161.240479 128.219559,176.348999 131.612656,194.224335 
	C136.207794,218.432175 131.619843,240.640640 114.765701,258.939301 
	C105.050072,269.487640 92.388985,275.236206 77.491615,276.514252 
	C44.283649,279.363281 15.879008,255.822067 5.302426,226.542847 
	C3.444186,221.398651 1.781338,216.199814 1.128711,210.356201 
	C1.000000,200.645767 1.000000,191.291550 1.000000,181.468658 
M57.970695,241.519821 
	C66.168983,245.444733 74.470741,246.082932 82.973137,242.459518 
	C96.263390,236.795700 101.965126,221.749313 101.393768,209.130035 
	C100.676949,193.297684 94.235771,179.872162 80.914886,170.040024 
	C62.066933,156.128296 39.019581,164.099457 33.390980,186.822891 
	C28.552114,206.358063 37.949032,231.278336 57.970695,241.519821 
z"/>
<path fill="#000000" opacity="1.000000" stroke="none" 
	d="
M513.000000,278.531342 
	C509.294495,296.534698 501.332581,311.651184 488.130676,324.005463 
	C476.004272,335.353302 462.047241,342.372711 445.449493,344.498810 
	C429.000244,346.605896 414.066040,343.128448 400.880035,333.278656 
	C387.337250,323.162323 379.926605,309.296570 377.621613,292.559631 
	C374.466705,269.651550 380.876984,249.319229 395.288452,231.841232 
	C409.488007,214.620239 427.728546,204.399414 450.744781,203.541916 
	C467.336090,202.923782 482.002777,207.454330 494.313873,218.395660 
	C504.403534,227.362717 509.929199,239.194229 512.876221,252.653976 
	C513.000000,261.354218 513.000000,269.708466 513.000000,278.531342 
M478.461029,282.956024 
	C480.994812,277.067627 481.687042,270.883545 481.805786,264.521423 
	C482.128967,247.204727 467.930298,231.323639 446.404053,235.658585 
	C421.779144,240.617538 404.898560,268.057770 409.345520,289.903046 
	C412.745789,306.606598 428.909760,316.240295 443.271545,312.840057 
	C459.944153,308.892700 470.947845,298.671082 478.461029,282.956024 
z"/>
<path fill="#000000" opacity="1.000000" stroke="none" 
	d="
M65.552170,389.811005 
	C67.365410,374.765808 74.261902,362.403442 82.110306,350.308929 
	C97.202194,327.052063 112.005821,303.607178 126.820885,280.171936 
	C137.271637,263.640442 149.310562,248.483002 165.451553,237.195190 
	C181.435547,226.017197 199.062378,218.367569 218.529434,215.711090 
	C254.877060,210.751083 287.863678,218.619644 316.949982,241.633270 
	C332.353119,253.820511 343.294647,269.509949 353.543579,285.908386 
	C363.658356,302.092102 374.329651,317.930389 384.322937,334.186920 
	C392.038544,346.738281 401.503296,358.282104 406.698547,372.325012 
	C416.996277,400.159912 413.423798,426.246307 395.892639,449.998718 
	C382.980072,467.493561 365.199432,477.241119 343.577515,480.491272 
	C327.199646,482.953125 312.028198,479.539490 297.021545,473.491302 
	C281.105835,467.076691 264.624420,463.419952 247.369812,462.188202 
	C221.031860,460.307983 196.594040,466.625183 172.457870,476.155792 
	C152.420120,484.068024 132.277267,483.062836 112.397552,474.693512 
	C94.615067,467.207184 81.602806,454.514374 73.016350,437.626556 
	C65.497635,422.838837 62.851406,406.862579 65.552170,389.811005 
M181.737015,265.278320 
	C173.976517,271.599579 166.694809,278.397858 161.225967,286.872314 
	C142.425491,316.005371 123.493790,345.056335 104.985664,374.374451 
	C94.660645,390.730011 93.343796,407.523315 103.016182,425.208679 
	C112.853821,443.196228 138.900116,455.754639 161.376694,446.205353 
	C189.052841,434.446930 217.740540,428.749603 248.042542,430.441711 
	C268.653381,431.592651 288.346527,435.696869 307.443939,443.222321 
	C315.162811,446.264038 322.917419,449.675720 331.319183,449.547180 
	C347.493958,449.299713 361.143585,443.099152 370.725159,429.786316 
	C381.525665,414.779968 383.948853,398.614868 375.717651,381.466522 
	C372.543884,374.854462 368.366180,368.869568 364.397980,362.748596 
	C347.441071,336.592346 331.524200,309.744507 313.568756,284.259186 
	C297.998657,262.159607 275.816010,249.782379 249.313812,246.627106 
	C224.910095,243.721680 202.206985,249.874832 181.737015,265.278320 
z"/>
<path fill="#000000" opacity="1.000000" stroke="none" 
	d="
M276.326477,109.275681 
	C276.795624,123.923592 276.372070,138.020126 271.151917,151.457474 
	C260.806824,178.087021 243.398254,197.416107 214.492462,203.652206 
	C191.520615,208.608093 171.298843,202.261124 153.681015,186.809845 
	C138.391296,173.400436 129.441116,156.254745 126.181870,136.703842 
	C120.659340,103.576263 128.315659,73.740036 153.652039,50.437302 
	C181.296860,25.011421 223.991776,26.591568 250.093903,52.768700 
	C264.355408,67.071205 272.677277,84.049751 275.425781,103.925354 
	C275.652039,105.561516 276.019196,107.178200 276.326477,109.275681 
M171.827148,159.656662 
	C173.016159,160.822128 174.182022,162.012329 175.397736,163.149246 
	C188.599335,175.495193 206.662964,176.776474 221.409775,166.398834 
	C233.263321,158.057251 240.260834,146.557037 243.128235,132.488327 
	C247.575439,110.668259 243.114838,91.059586 227.013245,75.249878 
	C208.829956,57.396172 183.222260,61.977951 168.915604,81.041557 
	C157.987747,95.602905 154.328125,112.072372 157.491577,129.886902 
	C159.429962,140.802536 163.558853,150.905807 171.827148,159.656662 
z"/>
<path fill="#000000" opacity="1.000000" stroke="none" 
	d="
M286.135071,138.509750 
	C293.771454,106.635880 311.641632,83.975304 343.284851,74.821724 
	C367.453369,67.830376 393.290283,74.955070 410.226562,96.521530 
	C422.372955,111.988594 427.257141,129.904968 426.186768,149.181305 
	C425.145752,167.929382 418.946014,185.073074 407.076813,200.005783 
	C396.168152,213.730103 382.541565,223.290787 365.480072,227.341217 
	C342.638184,232.763931 322.274139,227.643982 305.569458,210.898987 
	C286.684448,191.968369 282.211609,168.496979 285.540527,142.871979 
	C285.711700,141.554413 285.835724,140.230698 286.135071,138.509750 
M388.543854,121.892303 
	C380.029999,106.783424 364.994751,100.890602 349.222900,106.481087 
	C323.426239,115.624947 308.556610,151.156708 320.090729,176.093918 
	C329.277863,195.956833 348.181274,203.007828 366.526276,193.192963 
	C374.752045,188.792023 381.212250,182.363419 385.841492,174.220963 
	C395.341370,157.511444 397.726105,140.360641 388.543854,121.892303 
z"/>
</svg>